<mxfile host="app.diagrams.net" modified="2022-08-02T13:24:33.764Z" agent="5.0 (Windows NT 10.0; WOW64) AppleWebKit/537.36 (KHTML, like Gecko) Chrome/86.0.4240.198 Safari/537.36" etag="7thuVJMu_l8JKwfS2FwB" version="20.2.2" type="github">
  <diagram id="WoiL_mWIxm1mxqztFPtJ" name="第 1 页">
    <mxGraphModel dx="948" dy="467" grid="1" gridSize="10" guides="1" tooltips="1" connect="1" arrows="1" fold="1" page="1" pageScale="1" pageWidth="1169" pageHeight="1654" math="0" shadow="0">
      <root>
        <mxCell id="0" />
        <mxCell id="1" parent="0" />
        <mxCell id="riQack8DRU1FnJC0j5_M-43" value="" style="endArrow=none;html=1;rounded=0;strokeColor=#00CCCC;" edge="1" parent="1">
          <mxGeometry width="50" height="50" relative="1" as="geometry">
            <mxPoint x="530" y="360" as="sourcePoint" />
            <mxPoint x="529.79" y="450" as="targetPoint" />
          </mxGeometry>
        </mxCell>
        <mxCell id="4I9LMxP-AOuE93W6MuQc-20" value="" style="group;rotation=90;" parent="1" vertex="1" connectable="0">
          <mxGeometry x="470" y="180" width="20" height="20" as="geometry" />
        </mxCell>
        <mxCell id="4I9LMxP-AOuE93W6MuQc-21" value="" style="ellipse;whiteSpace=wrap;html=1;aspect=fixed;strokeColor=#000000;fillColor=#FFFFFF;rotation=90;" parent="4I9LMxP-AOuE93W6MuQc-20" vertex="1">
          <mxGeometry width="20" height="20" as="geometry" />
        </mxCell>
        <mxCell id="4I9LMxP-AOuE93W6MuQc-22" value="" style="triangle;whiteSpace=wrap;html=1;strokeColor=#000000;fillColor=#FFFFFF;rotation=90;" parent="4I9LMxP-AOuE93W6MuQc-20" vertex="1">
          <mxGeometry x="2" y="4" width="15.416666666666666" height="16.666666666666664" as="geometry" />
        </mxCell>
        <mxCell id="4I9LMxP-AOuE93W6MuQc-29" value="" style="shape=trapezoid;perimeter=trapezoidPerimeter;whiteSpace=wrap;html=1;fixedSize=1;strokeColor=#000000;fillColor=#FFFFFF;" parent="1" vertex="1">
          <mxGeometry x="100" y="90" width="60" height="50" as="geometry" />
        </mxCell>
        <mxCell id="4I9LMxP-AOuE93W6MuQc-30" value="" style="shape=trapezoid;perimeter=trapezoidPerimeter;whiteSpace=wrap;html=1;fixedSize=1;strokeColor=#000000;fillColor=#FFFFFF;" parent="1" vertex="1">
          <mxGeometry x="175" y="90" width="60" height="50" as="geometry" />
        </mxCell>
        <mxCell id="FFGr_y6MqN4lwFUfsgwu-1" value="" style="shape=trapezoid;perimeter=trapezoidPerimeter;whiteSpace=wrap;html=1;fixedSize=1;strokeColor=#000000;fillColor=#FFFFFF;" parent="1" vertex="1">
          <mxGeometry x="250" y="90" width="60" height="50" as="geometry" />
        </mxCell>
        <mxCell id="FFGr_y6MqN4lwFUfsgwu-2" value="" style="shape=trapezoid;perimeter=trapezoidPerimeter;whiteSpace=wrap;html=1;fixedSize=1;strokeColor=#000000;fillColor=#FFFFFF;" parent="1" vertex="1">
          <mxGeometry x="320" y="90" width="60" height="50" as="geometry" />
        </mxCell>
        <mxCell id="FFGr_y6MqN4lwFUfsgwu-6" value="" style="endArrow=none;html=1;rounded=0;strokeColor=#FF0000;" parent="1" edge="1">
          <mxGeometry width="50" height="50" relative="1" as="geometry">
            <mxPoint x="130" y="70" as="sourcePoint" />
            <mxPoint x="620" y="70" as="targetPoint" />
            <Array as="points" />
          </mxGeometry>
        </mxCell>
        <mxCell id="FFGr_y6MqN4lwFUfsgwu-7" value="" style="endArrow=none;html=1;rounded=0;strokeColor=#FF8000;" parent="1" edge="1">
          <mxGeometry width="50" height="50" relative="1" as="geometry">
            <mxPoint x="130" y="170" as="sourcePoint" />
            <mxPoint x="570" y="170" as="targetPoint" />
            <Array as="points" />
          </mxGeometry>
        </mxCell>
        <mxCell id="FFGr_y6MqN4lwFUfsgwu-9" value="冷机1" style="rounded=0;whiteSpace=wrap;html=1;" parent="1" vertex="1">
          <mxGeometry x="470" y="215" width="70" height="105" as="geometry" />
        </mxCell>
        <mxCell id="FFGr_y6MqN4lwFUfsgwu-10" value="冷机2" style="rounded=0;whiteSpace=wrap;html=1;" parent="1" vertex="1">
          <mxGeometry x="560" y="215" width="70" height="105" as="geometry" />
        </mxCell>
        <mxCell id="FFGr_y6MqN4lwFUfsgwu-12" value="" style="endArrow=none;html=1;rounded=0;exitX=0.5;exitY=0;exitDx=0;exitDy=0;strokeColor=#FF0000;" parent="1" source="4I9LMxP-AOuE93W6MuQc-29" edge="1">
          <mxGeometry width="50" height="50" relative="1" as="geometry">
            <mxPoint x="170" y="110" as="sourcePoint" />
            <mxPoint x="130" y="70" as="targetPoint" />
          </mxGeometry>
        </mxCell>
        <mxCell id="FFGr_y6MqN4lwFUfsgwu-14" value="" style="endArrow=none;html=1;rounded=0;strokeColor=#FF8000;" parent="1" edge="1">
          <mxGeometry width="50" height="50" relative="1" as="geometry">
            <mxPoint x="130" y="170" as="sourcePoint" />
            <mxPoint x="129.85" y="140" as="targetPoint" />
          </mxGeometry>
        </mxCell>
        <mxCell id="FFGr_y6MqN4lwFUfsgwu-15" value="" style="endArrow=none;html=1;rounded=0;exitX=0.5;exitY=0;exitDx=0;exitDy=0;strokeColor=#FF0000;" parent="1" edge="1">
          <mxGeometry width="50" height="50" relative="1" as="geometry">
            <mxPoint x="204.93" y="90" as="sourcePoint" />
            <mxPoint x="204.93" y="70" as="targetPoint" />
          </mxGeometry>
        </mxCell>
        <mxCell id="FFGr_y6MqN4lwFUfsgwu-16" value="" style="endArrow=none;html=1;rounded=0;strokeColor=#FF8000;" parent="1" edge="1">
          <mxGeometry width="50" height="50" relative="1" as="geometry">
            <mxPoint x="204.93" y="169.99999999999994" as="sourcePoint" />
            <mxPoint x="204.78000000000003" y="139.99999999999994" as="targetPoint" />
          </mxGeometry>
        </mxCell>
        <mxCell id="FFGr_y6MqN4lwFUfsgwu-17" value="" style="endArrow=none;html=1;rounded=0;exitX=0.5;exitY=0;exitDx=0;exitDy=0;strokeColor=#FF0000;" parent="1" edge="1">
          <mxGeometry width="50" height="50" relative="1" as="geometry">
            <mxPoint x="279.93" y="90" as="sourcePoint" />
            <mxPoint x="279.93" y="70" as="targetPoint" />
          </mxGeometry>
        </mxCell>
        <mxCell id="FFGr_y6MqN4lwFUfsgwu-18" value="" style="endArrow=none;html=1;rounded=0;strokeColor=#FF8000;" parent="1" edge="1">
          <mxGeometry width="50" height="50" relative="1" as="geometry">
            <mxPoint x="279.93" y="169.99999999999994" as="sourcePoint" />
            <mxPoint x="279.78000000000003" y="139.99999999999994" as="targetPoint" />
          </mxGeometry>
        </mxCell>
        <mxCell id="FFGr_y6MqN4lwFUfsgwu-19" value="" style="endArrow=none;html=1;rounded=0;exitX=0.5;exitY=0;exitDx=0;exitDy=0;strokeColor=#FF0000;" parent="1" edge="1">
          <mxGeometry width="50" height="50" relative="1" as="geometry">
            <mxPoint x="349.93" y="90" as="sourcePoint" />
            <mxPoint x="349.93" y="70" as="targetPoint" />
          </mxGeometry>
        </mxCell>
        <mxCell id="FFGr_y6MqN4lwFUfsgwu-20" value="" style="endArrow=none;html=1;rounded=0;strokeColor=#FF8000;" parent="1" edge="1">
          <mxGeometry width="50" height="50" relative="1" as="geometry">
            <mxPoint x="349.93" y="169.99999999999994" as="sourcePoint" />
            <mxPoint x="349.78000000000003" y="139.99999999999994" as="targetPoint" />
          </mxGeometry>
        </mxCell>
        <mxCell id="FFGr_y6MqN4lwFUfsgwu-25" value="" style="group;rotation=90;" parent="1" vertex="1" connectable="0">
          <mxGeometry x="560" y="179.32999999999998" width="20" height="20" as="geometry" />
        </mxCell>
        <mxCell id="FFGr_y6MqN4lwFUfsgwu-26" value="" style="ellipse;whiteSpace=wrap;html=1;aspect=fixed;strokeColor=#000000;fillColor=#FFFFFF;rotation=90;" parent="FFGr_y6MqN4lwFUfsgwu-25" vertex="1">
          <mxGeometry width="20" height="20" as="geometry" />
        </mxCell>
        <mxCell id="FFGr_y6MqN4lwFUfsgwu-27" value="" style="triangle;whiteSpace=wrap;html=1;strokeColor=#000000;fillColor=#FFFFFF;rotation=90;" parent="FFGr_y6MqN4lwFUfsgwu-25" vertex="1">
          <mxGeometry x="2" y="4" width="15.416666666666666" height="16.666666666666664" as="geometry" />
        </mxCell>
        <mxCell id="FFGr_y6MqN4lwFUfsgwu-29" value="" style="endArrow=none;html=1;rounded=0;entryX=1;entryY=0.5;entryDx=0;entryDy=0;strokeColor=#FF8000;" parent="1" target="FFGr_y6MqN4lwFUfsgwu-27" edge="1">
          <mxGeometry width="50" height="50" relative="1" as="geometry">
            <mxPoint x="570" y="240" as="sourcePoint" />
            <mxPoint x="590" y="190" as="targetPoint" />
          </mxGeometry>
        </mxCell>
        <mxCell id="FFGr_y6MqN4lwFUfsgwu-30" value="" style="endArrow=none;html=1;rounded=0;entryX=1;entryY=0.5;entryDx=0;entryDy=0;strokeColor=#FF8000;" parent="1" edge="1">
          <mxGeometry width="50" height="50" relative="1" as="geometry">
            <mxPoint x="480.06" y="240.63" as="sourcePoint" />
            <mxPoint x="479.7683333333335" y="200.00166666666644" as="targetPoint" />
          </mxGeometry>
        </mxCell>
        <mxCell id="FFGr_y6MqN4lwFUfsgwu-31" value="" style="endArrow=none;html=1;rounded=0;strokeColor=#FF3333;" parent="1" edge="1">
          <mxGeometry width="50" height="50" relative="1" as="geometry">
            <mxPoint x="620" y="240" as="sourcePoint" />
            <mxPoint x="570" y="240" as="targetPoint" />
          </mxGeometry>
        </mxCell>
        <mxCell id="FFGr_y6MqN4lwFUfsgwu-32" value="" style="endArrow=none;html=1;rounded=0;strokeColor=#FF3333;" parent="1" edge="1">
          <mxGeometry width="50" height="50" relative="1" as="geometry">
            <mxPoint x="530" y="240" as="sourcePoint" />
            <mxPoint x="480" y="240" as="targetPoint" />
          </mxGeometry>
        </mxCell>
        <mxCell id="FFGr_y6MqN4lwFUfsgwu-33" value="" style="endArrow=none;html=1;rounded=0;strokeColor=#FF0000;" parent="1" edge="1">
          <mxGeometry width="50" height="50" relative="1" as="geometry">
            <mxPoint x="530" y="70" as="sourcePoint" />
            <mxPoint x="530" y="240" as="targetPoint" />
          </mxGeometry>
        </mxCell>
        <mxCell id="FFGr_y6MqN4lwFUfsgwu-34" value="" style="endArrow=none;html=1;rounded=0;strokeColor=#FF0000;" parent="1" edge="1">
          <mxGeometry width="50" height="50" relative="1" as="geometry">
            <mxPoint x="620" y="70" as="sourcePoint" />
            <mxPoint x="620" y="240" as="targetPoint" />
          </mxGeometry>
        </mxCell>
        <mxCell id="FFGr_y6MqN4lwFUfsgwu-35" value="" style="endArrow=none;html=1;rounded=0;strokeColor=#FF8000;" parent="1" edge="1">
          <mxGeometry width="50" height="50" relative="1" as="geometry">
            <mxPoint x="480.11" y="179.99999999999997" as="sourcePoint" />
            <mxPoint x="480" y="170" as="targetPoint" />
            <Array as="points">
              <mxPoint x="480.11" y="179.99999999999997" />
            </Array>
          </mxGeometry>
        </mxCell>
        <mxCell id="FFGr_y6MqN4lwFUfsgwu-36" value="" style="endArrow=none;html=1;rounded=0;strokeColor=#FF8000;" parent="1" edge="1">
          <mxGeometry width="50" height="50" relative="1" as="geometry">
            <mxPoint x="570.0400000000002" y="180" as="sourcePoint" />
            <mxPoint x="569.9300000000001" y="170" as="targetPoint" />
            <Array as="points">
              <mxPoint x="570.04" y="179.99999999999997" />
            </Array>
          </mxGeometry>
        </mxCell>
        <mxCell id="riQack8DRU1FnJC0j5_M-1" value="" style="endArrow=none;html=1;rounded=0;strokeColor=#0000CC;" edge="1" parent="1">
          <mxGeometry width="50" height="50" relative="1" as="geometry">
            <mxPoint x="569.7" y="300" as="sourcePoint" />
            <mxPoint x="569.7" y="380" as="targetPoint" />
          </mxGeometry>
        </mxCell>
        <mxCell id="riQack8DRU1FnJC0j5_M-2" value="" style="endArrow=none;html=1;rounded=0;strokeColor=#0000CC;" edge="1" parent="1">
          <mxGeometry width="50" height="50" relative="1" as="geometry">
            <mxPoint x="479.70000000000005" y="300" as="sourcePoint" />
            <mxPoint x="479.70000000000005" y="380" as="targetPoint" />
          </mxGeometry>
        </mxCell>
        <mxCell id="riQack8DRU1FnJC0j5_M-4" value="" style="endArrow=none;html=1;rounded=0;strokeColor=#007FFF;" edge="1" parent="1">
          <mxGeometry width="50" height="50" relative="1" as="geometry">
            <mxPoint x="530" y="300" as="sourcePoint" />
            <mxPoint x="480" y="300" as="targetPoint" />
          </mxGeometry>
        </mxCell>
        <mxCell id="riQack8DRU1FnJC0j5_M-5" value="" style="endArrow=none;html=1;rounded=0;strokeColor=#007FFF;" edge="1" parent="1">
          <mxGeometry width="50" height="50" relative="1" as="geometry">
            <mxPoint x="620" y="300" as="sourcePoint" />
            <mxPoint x="570" y="300" as="targetPoint" />
          </mxGeometry>
        </mxCell>
        <mxCell id="riQack8DRU1FnJC0j5_M-6" value="" style="endArrow=none;html=1;rounded=0;strokeColor=#0000CC;" edge="1" parent="1">
          <mxGeometry width="50" height="50" relative="1" as="geometry">
            <mxPoint x="570" y="380" as="sourcePoint" />
            <mxPoint x="310" y="380" as="targetPoint" />
          </mxGeometry>
        </mxCell>
        <mxCell id="riQack8DRU1FnJC0j5_M-7" value="分水器" style="rounded=0;whiteSpace=wrap;html=1;" vertex="1" parent="1">
          <mxGeometry x="210" y="360" width="100" height="40" as="geometry" />
        </mxCell>
        <mxCell id="riQack8DRU1FnJC0j5_M-8" value="集水器" style="rounded=0;whiteSpace=wrap;html=1;" vertex="1" parent="1">
          <mxGeometry x="50" y="360" width="100" height="40" as="geometry" />
        </mxCell>
        <mxCell id="riQack8DRU1FnJC0j5_M-9" value="" style="endArrow=none;html=1;rounded=0;strokeColor=#00CCCC;" edge="1" parent="1">
          <mxGeometry width="50" height="50" relative="1" as="geometry">
            <mxPoint x="620" y="450" as="sourcePoint" />
            <mxPoint x="100" y="450" as="targetPoint" />
          </mxGeometry>
        </mxCell>
        <mxCell id="riQack8DRU1FnJC0j5_M-10" value="" style="endArrow=none;html=1;rounded=0;strokeColor=#00CCCC;" edge="1" parent="1">
          <mxGeometry width="50" height="50" relative="1" as="geometry">
            <mxPoint x="100.24000000000007" y="400" as="sourcePoint" />
            <mxPoint x="100" y="450" as="targetPoint" />
          </mxGeometry>
        </mxCell>
        <mxCell id="riQack8DRU1FnJC0j5_M-15" value="" style="group" vertex="1" connectable="0" parent="1">
          <mxGeometry x="170" y="375" width="20" height="10" as="geometry" />
        </mxCell>
        <mxCell id="riQack8DRU1FnJC0j5_M-13" value="" style="triangle;whiteSpace=wrap;html=1;" vertex="1" parent="riQack8DRU1FnJC0j5_M-15">
          <mxGeometry width="10" height="10" as="geometry" />
        </mxCell>
        <mxCell id="riQack8DRU1FnJC0j5_M-14" value="" style="triangle;whiteSpace=wrap;html=1;rotation=-180;" vertex="1" parent="riQack8DRU1FnJC0j5_M-15">
          <mxGeometry x="10" width="10" height="10" as="geometry" />
        </mxCell>
        <mxCell id="riQack8DRU1FnJC0j5_M-16" value="" style="endArrow=none;html=1;rounded=0;exitX=0;exitY=0.5;exitDx=0;exitDy=0;" edge="1" parent="1" source="riQack8DRU1FnJC0j5_M-7">
          <mxGeometry width="50" height="50" relative="1" as="geometry">
            <mxPoint x="200" y="380.12" as="sourcePoint" />
            <mxPoint x="190" y="379.88" as="targetPoint" />
          </mxGeometry>
        </mxCell>
        <mxCell id="riQack8DRU1FnJC0j5_M-17" value="" style="endArrow=none;html=1;rounded=0;exitX=0;exitY=0.5;exitDx=0;exitDy=0;entryX=1;entryY=0.5;entryDx=0;entryDy=0;" edge="1" parent="1" target="riQack8DRU1FnJC0j5_M-8">
          <mxGeometry width="50" height="50" relative="1" as="geometry">
            <mxPoint x="170" y="380.05" as="sourcePoint" />
            <mxPoint x="155" y="379.93" as="targetPoint" />
          </mxGeometry>
        </mxCell>
        <mxCell id="riQack8DRU1FnJC0j5_M-18" value="" style="endArrow=none;html=1;rounded=0;strokeColor=#0000CC;" edge="1" parent="1">
          <mxGeometry width="50" height="50" relative="1" as="geometry">
            <mxPoint x="240" y="290" as="sourcePoint" />
            <mxPoint x="240.00000000000006" y="360" as="targetPoint" />
          </mxGeometry>
        </mxCell>
        <mxCell id="riQack8DRU1FnJC0j5_M-19" value="" style="endArrow=none;html=1;rounded=0;entryX=0.5;entryY=0;entryDx=0;entryDy=0;strokeColor=#0000CC;" edge="1" parent="1" target="riQack8DRU1FnJC0j5_M-7">
          <mxGeometry width="50" height="50" relative="1" as="geometry">
            <mxPoint x="259.87000000000006" y="260" as="sourcePoint" />
            <mxPoint x="259.87000000000006" y="340" as="targetPoint" />
          </mxGeometry>
        </mxCell>
        <mxCell id="riQack8DRU1FnJC0j5_M-20" value="" style="endArrow=none;html=1;rounded=0;strokeColor=#0000CC;" edge="1" parent="1">
          <mxGeometry width="50" height="50" relative="1" as="geometry">
            <mxPoint x="280" y="230" as="sourcePoint" />
            <mxPoint x="279.90000000000003" y="360" as="targetPoint" />
          </mxGeometry>
        </mxCell>
        <mxCell id="riQack8DRU1FnJC0j5_M-21" value="" style="endArrow=none;html=1;rounded=0;strokeColor=#00CCCC;" edge="1" parent="1">
          <mxGeometry width="50" height="50" relative="1" as="geometry">
            <mxPoint x="80" y="230" as="sourcePoint" />
            <mxPoint x="79.94999999999999" y="360" as="targetPoint" />
          </mxGeometry>
        </mxCell>
        <mxCell id="riQack8DRU1FnJC0j5_M-22" value="" style="endArrow=none;html=1;rounded=0;strokeColor=#00CCCC;" edge="1" parent="1">
          <mxGeometry width="50" height="50" relative="1" as="geometry">
            <mxPoint x="100" y="260" as="sourcePoint" />
            <mxPoint x="99.85000000000008" y="360" as="targetPoint" />
          </mxGeometry>
        </mxCell>
        <mxCell id="riQack8DRU1FnJC0j5_M-23" value="" style="endArrow=none;html=1;rounded=0;strokeColor=#00CCCC;" edge="1" parent="1">
          <mxGeometry width="50" height="50" relative="1" as="geometry">
            <mxPoint x="120" y="290" as="sourcePoint" />
            <mxPoint x="120" y="360" as="targetPoint" />
          </mxGeometry>
        </mxCell>
        <mxCell id="riQack8DRU1FnJC0j5_M-24" value="空调机组" style="rounded=0;whiteSpace=wrap;html=1;" vertex="1" parent="1">
          <mxGeometry x="150" y="280" width="60" height="20" as="geometry" />
        </mxCell>
        <mxCell id="riQack8DRU1FnJC0j5_M-25" value="新风机组" style="rounded=0;whiteSpace=wrap;html=1;" vertex="1" parent="1">
          <mxGeometry x="150" y="220" width="60" height="20" as="geometry" />
        </mxCell>
        <mxCell id="riQack8DRU1FnJC0j5_M-26" value="空调机组" style="rounded=0;whiteSpace=wrap;html=1;" vertex="1" parent="1">
          <mxGeometry x="150" y="250" width="60" height="20" as="geometry" />
        </mxCell>
        <mxCell id="riQack8DRU1FnJC0j5_M-27" value="" style="endArrow=none;html=1;rounded=0;strokeColor=#0000CC;" edge="1" parent="1">
          <mxGeometry width="50" height="50" relative="1" as="geometry">
            <mxPoint x="260" y="259.77" as="sourcePoint" />
            <mxPoint x="210" y="259.77" as="targetPoint" />
          </mxGeometry>
        </mxCell>
        <mxCell id="riQack8DRU1FnJC0j5_M-28" value="" style="endArrow=none;html=1;rounded=0;strokeColor=#00CCCC;" edge="1" parent="1">
          <mxGeometry width="50" height="50" relative="1" as="geometry">
            <mxPoint x="150" y="259.77" as="sourcePoint" />
            <mxPoint x="100" y="259.77" as="targetPoint" />
          </mxGeometry>
        </mxCell>
        <mxCell id="riQack8DRU1FnJC0j5_M-29" value="" style="endArrow=none;html=1;rounded=0;strokeColor=#0000CC;" edge="1" parent="1">
          <mxGeometry width="50" height="50" relative="1" as="geometry">
            <mxPoint x="240" y="290" as="sourcePoint" />
            <mxPoint x="210" y="289.77" as="targetPoint" />
          </mxGeometry>
        </mxCell>
        <mxCell id="riQack8DRU1FnJC0j5_M-30" value="" style="endArrow=none;html=1;rounded=0;strokeColor=#00CCCC;" edge="1" parent="1">
          <mxGeometry width="50" height="50" relative="1" as="geometry">
            <mxPoint x="150" y="290.23" as="sourcePoint" />
            <mxPoint x="120" y="290" as="targetPoint" />
          </mxGeometry>
        </mxCell>
        <mxCell id="riQack8DRU1FnJC0j5_M-31" value="" style="endArrow=none;html=1;rounded=0;strokeColor=#00CCCC;" edge="1" parent="1">
          <mxGeometry width="50" height="50" relative="1" as="geometry">
            <mxPoint x="150" y="230" as="sourcePoint" />
            <mxPoint x="80" y="229.76999999999998" as="targetPoint" />
          </mxGeometry>
        </mxCell>
        <mxCell id="riQack8DRU1FnJC0j5_M-32" value="" style="endArrow=none;html=1;rounded=0;strokeColor=#0000CC;" edge="1" parent="1">
          <mxGeometry width="50" height="50" relative="1" as="geometry">
            <mxPoint x="280" y="230.09" as="sourcePoint" />
            <mxPoint x="209.99999999999997" y="229.85999999999999" as="targetPoint" />
          </mxGeometry>
        </mxCell>
        <mxCell id="riQack8DRU1FnJC0j5_M-34" value="" style="group;rotation=-90;" vertex="1" connectable="0" parent="1">
          <mxGeometry x="520" y="341" width="20" height="20" as="geometry" />
        </mxCell>
        <mxCell id="riQack8DRU1FnJC0j5_M-35" value="" style="ellipse;whiteSpace=wrap;html=1;aspect=fixed;strokeColor=#000000;fillColor=#FFFFFF;rotation=-90;" vertex="1" parent="riQack8DRU1FnJC0j5_M-34">
          <mxGeometry width="20" height="20" as="geometry" />
        </mxCell>
        <mxCell id="riQack8DRU1FnJC0j5_M-36" value="" style="triangle;whiteSpace=wrap;html=1;strokeColor=#000000;fillColor=#FFFFFF;rotation=-90;" vertex="1" parent="riQack8DRU1FnJC0j5_M-34">
          <mxGeometry x="2" y="-1" width="15.416666666666666" height="16.666666666666664" as="geometry" />
        </mxCell>
        <mxCell id="riQack8DRU1FnJC0j5_M-37" value="" style="group;rotation=-90;" vertex="1" connectable="0" parent="1">
          <mxGeometry x="610" y="340" width="20" height="20" as="geometry" />
        </mxCell>
        <mxCell id="riQack8DRU1FnJC0j5_M-38" value="" style="ellipse;whiteSpace=wrap;html=1;aspect=fixed;strokeColor=#000000;fillColor=#FFFFFF;rotation=-90;" vertex="1" parent="riQack8DRU1FnJC0j5_M-37">
          <mxGeometry width="20" height="20" as="geometry" />
        </mxCell>
        <mxCell id="riQack8DRU1FnJC0j5_M-39" value="" style="triangle;whiteSpace=wrap;html=1;strokeColor=#000000;fillColor=#FFFFFF;rotation=-90;" vertex="1" parent="riQack8DRU1FnJC0j5_M-37">
          <mxGeometry x="2" y="-1" width="15.416666666666666" height="16.666666666666664" as="geometry" />
        </mxCell>
        <mxCell id="riQack8DRU1FnJC0j5_M-41" value="" style="endArrow=none;html=1;rounded=0;strokeColor=#00CCCC;" edge="1" parent="1">
          <mxGeometry width="50" height="50" relative="1" as="geometry">
            <mxPoint x="529.7900000000001" y="300" as="sourcePoint" />
            <mxPoint x="529.79" y="340" as="targetPoint" />
          </mxGeometry>
        </mxCell>
        <mxCell id="riQack8DRU1FnJC0j5_M-42" value="" style="endArrow=none;html=1;rounded=0;strokeColor=#00CCCC;" edge="1" parent="1">
          <mxGeometry width="50" height="50" relative="1" as="geometry">
            <mxPoint x="619.79" y="300" as="sourcePoint" />
            <mxPoint x="619.79" y="340" as="targetPoint" />
          </mxGeometry>
        </mxCell>
        <mxCell id="riQack8DRU1FnJC0j5_M-44" value="" style="endArrow=none;html=1;rounded=0;strokeColor=#00CCCC;" edge="1" parent="1">
          <mxGeometry width="50" height="50" relative="1" as="geometry">
            <mxPoint x="620" y="360" as="sourcePoint" />
            <mxPoint x="619.79" y="451" as="targetPoint" />
          </mxGeometry>
        </mxCell>
        <mxCell id="riQack8DRU1FnJC0j5_M-45" value="" style="endArrow=classic;html=1;rounded=0;strokeColor=#FF0000;" edge="1" parent="1">
          <mxGeometry width="50" height="50" relative="1" as="geometry">
            <mxPoint x="435" y="70" as="sourcePoint" />
            <mxPoint x="390" y="70" as="targetPoint" />
          </mxGeometry>
        </mxCell>
        <mxCell id="riQack8DRU1FnJC0j5_M-51" value="" style="endArrow=classic;html=1;rounded=0;strokeColor=#FF8000;" edge="1" parent="1">
          <mxGeometry width="50" height="50" relative="1" as="geometry">
            <mxPoint x="390" y="170" as="sourcePoint" />
            <mxPoint x="430" y="170" as="targetPoint" />
          </mxGeometry>
        </mxCell>
        <mxCell id="riQack8DRU1FnJC0j5_M-52" value="" style="endArrow=classic;html=1;rounded=0;strokeColor=#00CCCC;" edge="1" parent="1">
          <mxGeometry width="50" height="50" relative="1" as="geometry">
            <mxPoint x="529.75" y="400" as="sourcePoint" />
            <mxPoint x="529.75" y="400" as="targetPoint" />
            <Array as="points">
              <mxPoint x="529.75" y="440" />
            </Array>
          </mxGeometry>
        </mxCell>
        <mxCell id="riQack8DRU1FnJC0j5_M-53" value="" style="endArrow=classic;html=1;rounded=0;strokeColor=#00CCCC;" edge="1" parent="1">
          <mxGeometry width="50" height="50" relative="1" as="geometry">
            <mxPoint x="619.75" y="400" as="sourcePoint" />
            <mxPoint x="619.75" y="400" as="targetPoint" />
            <Array as="points">
              <mxPoint x="619.75" y="440" />
            </Array>
          </mxGeometry>
        </mxCell>
        <mxCell id="riQack8DRU1FnJC0j5_M-54" value="" style="endArrow=classic;html=1;rounded=0;strokeColor=#0000CC;" edge="1" parent="1">
          <mxGeometry width="50" height="50" relative="1" as="geometry">
            <mxPoint x="385" y="379.75" as="sourcePoint" />
            <mxPoint x="340" y="379.75" as="targetPoint" />
          </mxGeometry>
        </mxCell>
        <mxCell id="riQack8DRU1FnJC0j5_M-55" value="" style="endArrow=classic;html=1;rounded=0;strokeColor=#00CCCC;" edge="1" parent="1">
          <mxGeometry width="50" height="50" relative="1" as="geometry">
            <mxPoint x="170" y="450" as="sourcePoint" />
            <mxPoint x="210" y="450" as="targetPoint" />
            <Array as="points">
              <mxPoint x="190" y="450.25" />
            </Array>
          </mxGeometry>
        </mxCell>
        <mxCell id="riQack8DRU1FnJC0j5_M-56" value="" style="endArrow=classic;html=1;rounded=0;strokeColor=#0000CC;" edge="1" parent="1">
          <mxGeometry width="50" height="50" relative="1" as="geometry">
            <mxPoint x="259.75" y="290" as="sourcePoint" />
            <mxPoint x="259.75" y="290" as="targetPoint" />
            <Array as="points">
              <mxPoint x="259.75" y="330" />
            </Array>
          </mxGeometry>
        </mxCell>
        <mxCell id="riQack8DRU1FnJC0j5_M-57" value="" style="endArrow=classic;html=1;rounded=0;strokeColor=#00CCCC;" edge="1" parent="1">
          <mxGeometry width="50" height="50" relative="1" as="geometry">
            <mxPoint x="100" y="295.5" as="sourcePoint" />
            <mxPoint x="100" y="335.5" as="targetPoint" />
            <Array as="points">
              <mxPoint x="100" y="290" />
            </Array>
          </mxGeometry>
        </mxCell>
        <mxCell id="riQack8DRU1FnJC0j5_M-58" value="" style="endArrow=classic;html=1;rounded=0;strokeColor=#FF0000;" edge="1" parent="1">
          <mxGeometry width="50" height="50" relative="1" as="geometry">
            <mxPoint x="529.75" y="120" as="sourcePoint" />
            <mxPoint x="529.75" y="120" as="targetPoint" />
            <Array as="points">
              <mxPoint x="529.75" y="160" />
            </Array>
          </mxGeometry>
        </mxCell>
        <mxCell id="riQack8DRU1FnJC0j5_M-59" value="" style="endArrow=classic;html=1;rounded=0;strokeColor=#FF0000;" edge="1" parent="1">
          <mxGeometry width="50" height="50" relative="1" as="geometry">
            <mxPoint x="619.75" y="120" as="sourcePoint" />
            <mxPoint x="619.75" y="120" as="targetPoint" />
            <Array as="points">
              <mxPoint x="619.75" y="160" />
            </Array>
          </mxGeometry>
        </mxCell>
      </root>
    </mxGraphModel>
  </diagram>
</mxfile>
